<?xml version="1.0" encoding="UTF-8" standalone="no"?>
<!DOCTYPE svg PUBLIC "-//W3C//DTD SVG 1.1//EN"
 "http://www.w3.org/Graphics/SVG/1.1/DTD/svg11.dtd">
<!-- Generated by graphviz version 15.1.1 (20260805.0921)
 -->
<!-- Title: KaosAST Pages: 1 -->
<svg width="137pt" height="297pt"
 viewBox="0.00 0.00 137.00 297.00" xmlns="http://www.w3.org/2000/svg" xmlns:xlink="http://www.w3.org/1999/xlink">
<g id="graph0" class="graph" transform="scale(1 1) rotate(0) translate(4 293)">
<title>KaosAST</title>
<polygon fill="white" stroke="none" points="-4,4 -4,-293 132.5,-293 132.5,4 -4,4"/>
<!-- model -->
<g id="node1" class="node">
<title>model</title>
<polygon fill="none" stroke="black" points="104.12,-289 24.38,-289 24.38,-253 104.12,-253 104.12,-289"/>
<text xml:space="preserve" text-anchor="middle" x="64.25" y="-265.95" font-family="Times New Roman,serif" font-size="14.00">KaosModel</text>
</g>
<!-- element0 -->
<g id="node2" class="node">
<title>element0</title>
<polygon fill="none" stroke="black" points="128.5,-200.5 0,-200.5 0,-126.5 128.5,-126.5 128.5,-200.5"/>
<text xml:space="preserve" text-anchor="middle" x="64.25" y="-183.2" font-family="Times New Roman,serif" font-size="14.00">ElementNode</text>
<text xml:space="preserve" text-anchor="middle" x="64.25" y="-166.7" font-family="Times New Roman,serif" font-size="14.00">elementType = Goal</text>
<text xml:space="preserve" text-anchor="middle" x="64.25" y="-150.2" font-family="Times New Roman,serif" font-size="14.00">id = goal1</text>
<text xml:space="preserve" text-anchor="middle" x="64.25" y="-133.7" font-family="Times New Roman,serif" font-size="14.00">location = 1:1</text>
</g>
<!-- model&#45;&gt;element0 -->
<g id="edge1" class="edge">
<title>model&#45;&gt;element0</title>
<path fill="none" stroke="black" d="M64.25,-252.58C64.25,-241.5 64.25,-226.56 64.25,-212.14"/>
<polygon fill="black" stroke="black" points="67.75,-212.28 64.25,-202.28 60.75,-212.28 67.75,-212.28"/>
<text xml:space="preserve" text-anchor="middle" x="88.62" y="-221.7" font-family="Times New Roman,serif" font-size="14.00">elements</text>
</g>
<!-- property0_0 -->
<g id="node3" class="node">
<title>property0_0</title>
<polygon fill="none" stroke="black" points="128.12,-74 0.38,-74 0.38,0 128.12,0 128.12,-74"/>
<text xml:space="preserve" text-anchor="middle" x="64.25" y="-56.7" font-family="Times New Roman,serif" font-size="14.00">PropertyAssignment</text>
<text xml:space="preserve" text-anchor="middle" x="64.25" y="-40.2" font-family="Times New Roman,serif" font-size="14.00">name = Name</text>
<text xml:space="preserve" text-anchor="middle" x="64.25" y="-23.7" font-family="Times New Roman,serif" font-size="14.00">value = goal</text>
<text xml:space="preserve" text-anchor="middle" x="64.25" y="-7.2" font-family="Times New Roman,serif" font-size="14.00">location = 2:5</text>
</g>
<!-- element0&#45;&gt;property0_0 -->
<g id="edge2" class="edge">
<title>element0&#45;&gt;property0_0</title>
<path fill="none" stroke="black" d="M64.25,-126.15C64.25,-113.5 64.25,-99.1 64.25,-85.67"/>
<polygon fill="black" stroke="black" points="67.75,-85.69 64.25,-75.69 60.75,-85.69 67.75,-85.69"/>
<text xml:space="preserve" text-anchor="middle" x="91.25" y="-95.2" font-family="Times New Roman,serif" font-size="14.00">properties</text>
</g>
</g>
</svg>
