<?xml version="1.0" encoding="UTF-8" standalone="no"?>
<!DOCTYPE svg PUBLIC "-//W3C//DTD SVG 1.1//EN"
 "http://www.w3.org/Graphics/SVG/1.1/DTD/svg11.dtd">
<!-- Generated by graphviz version 15.1.1 (20260805.0921)
 -->
<!-- Title: KaosUmlProfile Pages: 1 -->
<svg width="847pt" height="419pt"
 viewBox="0.00 0.00 847.00 419.00" xmlns="http://www.w3.org/2000/svg" xmlns:xlink="http://www.w3.org/1999/xlink">
<g id="graph0" class="graph" transform="scale(1 1) rotate(0) translate(4 415)">
<title>KaosUmlProfile</title>
<polygon fill="white" stroke="none" points="-4,4 -4,-415 842.88,-415 842.88,4 -4,4"/>
<!-- ImproveHealth -->
<g id="node1" class="node">
<title>ImproveHealth</title>
<polygon fill="none" stroke="black" points="199,-329.5 199,-411 540.25,-411 540.25,-329.5 199,-329.5"/>
<text xml:space="preserve" text-anchor="start" x="341.5" y="-392.25" font-family="Times New Roman,serif" font-size="14.00">&lt;&lt;goal&gt;&gt;</text>
<text xml:space="preserve" text-anchor="start" x="324.62" y="-366.2" font-family="Times New Roman,serif" font-weight="bold" font-size="14.00">ImproveHealth</text>
<text xml:space="preserve" text-anchor="start" x="205" y="-339.25" font-family="Times New Roman,serif" font-size="14.00">{informalDef = Users shall improve their long&#45;term health}</text>
</g>
<!-- ProvidePersonalizedRecommendations -->
<g id="node2" class="node">
<title>ProvidePersonalizedRecommendations</title>
<polygon fill="none" stroke="black" points="158.88,-164.75 158.88,-246.25 580.38,-246.25 580.38,-164.75 158.88,-164.75"/>
<text xml:space="preserve" text-anchor="start" x="341.5" y="-227.5" font-family="Times New Roman,serif" font-size="14.00">&lt;&lt;goal&gt;&gt;</text>
<text xml:space="preserve" text-anchor="start" x="256.38" y="-201.45" font-family="Times New Roman,serif" font-weight="bold" font-size="14.00">ProvidePersonalizedRecommendations</text>
<text xml:space="preserve" text-anchor="start" x="164.88" y="-174.5" font-family="Times New Roman,serif" font-size="14.00">{informalDef = Users shall receive personalized health recommendations}</text>
</g>
<!-- ImproveHealth&#45;&gt;ProvidePersonalizedRecommendations -->
<g id="edge2" class="edge">
<title>ImproveHealth&#45;&gt;ProvidePersonalizedRecommendations</title>
<path fill="none" stroke="black" stroke-dasharray="5,2" d="M369.62,-329.85C369.62,-304.45 369.62,-271.54 369.62,-246.1"/>
<text xml:space="preserve" text-anchor="middle" x="397" y="-284" font-family="Times New Roman,serif" font-size="10.00">&lt;&lt;reduces&gt;&gt;</text>
</g>
<!-- GenerateRecommendations -->
<g id="node3" class="node">
<title>GenerateRecommendations</title>
<polygon fill="none" stroke="black" points="31.75,0 31.75,-81.5 491.5,-81.5 491.5,0 31.75,0"/>
<text xml:space="preserve" text-anchor="start" x="212.12" y="-62.75" font-family="Times New Roman,serif" font-size="14.00">&lt;&lt;requirement&gt;&gt;</text>
<text xml:space="preserve" text-anchor="start" x="180.62" y="-36.7" font-family="Times New Roman,serif" font-weight="bold" font-size="14.00">GenerateRecommendations</text>
<text xml:space="preserve" text-anchor="start" x="37.75" y="-9.75" font-family="Times New Roman,serif" font-size="14.00">{informalDef = The system shall generate personalized health recommendations}</text>
</g>
<!-- ProvidePersonalizedRecommendations&#45;&gt;GenerateRecommendations -->
<g id="edge1" class="edge">
<title>ProvidePersonalizedRecommendations&#45;&gt;GenerateRecommendations</title>
<path fill="none" stroke="black" stroke-dasharray="5,2" d="M319.19,-164.79C308,-154.06 297.05,-141.78 288.88,-128.75 279.87,-114.41 273.64,-96.85 269.42,-81.28"/>
<text xml:space="preserve" text-anchor="middle" x="316.25" y="-119.25" font-family="Times New Roman,serif" font-size="10.00">&lt;&lt;reduces&gt;&gt;</text>
</g>
<!-- HealthRecommendation -->
<g id="node5" class="node">
<title>HealthRecommendation</title>
<polygon fill="none" stroke="black" points="541.38,-13.25 541.38,-68.25 695.88,-68.25 695.88,-13.25 541.38,-13.25"/>
<text xml:space="preserve" text-anchor="start" x="582.25" y="-49.5" font-family="Times New Roman,serif" font-size="14.00">&lt;&lt;kobject&gt;&gt;</text>
<text xml:space="preserve" text-anchor="start" x="547.38" y="-23.45" font-family="Times New Roman,serif" font-weight="bold" font-size="14.00">HealthRecommendation</text>
</g>
<!-- ProvidePersonalizedRecommendations&#45;&gt;HealthRecommendation -->
<g id="edge8" class="edge">
<title>ProvidePersonalizedRecommendations&#45;&gt;HealthRecommendation</title>
<path fill="none" stroke="black" d="M444.05,-164.75C463.74,-153.61 484.75,-141.15 503.62,-128.75 532.5,-109.79 563.66,-85.99 586.26,-68.07"/>
<text xml:space="preserve" text-anchor="middle" x="549.86" y="-119.25" font-family="Times New Roman,serif" font-size="10.00">&lt;&lt;concerns&gt;&gt;</text>
</g>
<!-- HealthData -->
<g id="node4" class="node">
<title>HealthData</title>
<polygon fill="none" stroke="black" points="746.25,-13.25 746.25,-68.25 831,-68.25 831,-13.25 746.25,-13.25"/>
<text xml:space="preserve" text-anchor="start" x="752.25" y="-49.5" font-family="Times New Roman,serif" font-size="14.00">&lt;&lt;kobject&gt;&gt;</text>
<text xml:space="preserve" text-anchor="start" x="754.88" y="-23.45" font-family="Times New Roman,serif" font-weight="bold" font-size="14.00">HealthData</text>
</g>
<!-- GenerateHealthRecommendation -->
<g id="node6" class="node">
<title>GenerateHealthRecommendation</title>
<polygon fill="none" stroke="black" points="630.38,-178 630.38,-233 838.88,-233 838.88,-178 630.38,-178"/>
<text xml:space="preserve" text-anchor="start" x="698.25" y="-214.25" font-family="Times New Roman,serif" font-size="14.00">&lt;&lt;kaction&gt;&gt;</text>
<text xml:space="preserve" text-anchor="start" x="636.38" y="-188.2" font-family="Times New Roman,serif" font-weight="bold" font-size="14.00">GenerateHealthRecommendation</text>
</g>
<!-- GenerateHealthRecommendation&#45;&gt;GenerateRecommendations -->
<g id="edge3" class="edge">
<title>GenerateHealthRecommendation&#45;&gt;GenerateRecommendations</title>
<path fill="none" stroke="black" d="M654.19,-178.07C638.19,-173.28 621.45,-168.6 605.62,-164.75 517.76,-143.4 489.97,-160.69 405.38,-128.75 374.13,-116.95 342.08,-98.3 316.19,-81.29"/>
<text xml:space="preserve" text-anchor="middle" x="448.5" y="-119.25" font-family="Times New Roman,serif" font-size="10.00">&lt;&lt;operationalizes&gt;&gt;</text>
</g>
<!-- GenerateHealthRecommendation&#45;&gt;HealthData -->
<g id="edge6" class="edge">
<title>GenerateHealthRecommendation&#45;&gt;HealthData</title>
<path fill="none" stroke="black" d="M743.3,-178.35C753.35,-148.07 769.8,-98.47 779.88,-68.1"/>
<text xml:space="preserve" text-anchor="middle" x="786.12" y="-119.25" font-family="Times New Roman,serif" font-size="10.00">&lt;&lt;input&gt;&gt;</text>
</g>
<!-- GenerateHealthRecommendation&#45;&gt;HealthRecommendation -->
<g id="edge7" class="edge">
<title>GenerateHealthRecommendation&#45;&gt;HealthRecommendation</title>
<path fill="none" stroke="black" d="M715.99,-178.35C694.4,-148.07 659.05,-98.47 637.41,-68.1"/>
<text xml:space="preserve" text-anchor="middle" x="705.6" y="-119.25" font-family="Times New Roman,serif" font-size="10.00">&lt;&lt;output&gt;&gt;</text>
</g>
<!-- HealthAdvisor -->
<g id="node7" class="node">
<title>HealthAdvisor</title>
<polygon fill="none" stroke="black" points="0,-329.5 0,-411 119.25,-411 119.25,-329.5 0,-329.5"/>
<text xml:space="preserve" text-anchor="start" x="25.12" y="-392.25" font-family="Times New Roman,serif" font-size="14.00">&lt;&lt;kagent&gt;&gt;</text>
<text xml:space="preserve" text-anchor="start" x="16.88" y="-366.2" font-family="Times New Roman,serif" font-weight="bold" font-size="14.00">HealthAdvisor</text>
<text xml:space="preserve" text-anchor="start" x="6" y="-339.25" font-family="Times New Roman,serif" font-size="14.00">{realm = software}</text>
</g>
<!-- HealthAdvisor&#45;&gt;GenerateRecommendations -->
<g id="edge4" class="edge">
<title>HealthAdvisor&#45;&gt;GenerateRecommendations</title>
<path fill="none" stroke="black" d="M46.91,-329.79C35.38,-286.32 24.23,-215.8 53.38,-164.75 74.55,-127.64 111.8,-100.6 148.99,-81.49"/>
<text xml:space="preserve" text-anchor="middle" x="93.5" y="-201.62" font-family="Times New Roman,serif" font-size="10.00">&lt;&lt;responsibility&gt;&gt;</text>
</g>
<!-- HealthAdvisor&#45;&gt;GenerateHealthRecommendation -->
<g id="edge5" class="edge">
<title>HealthAdvisor&#45;&gt;GenerateHealthRecommendation</title>
<path fill="none" stroke="black" d="M119.01,-346.03C136.4,-339.92 155.59,-333.83 173.62,-329.5 288.34,-301.94 321.1,-317.44 436.62,-293.5 512.99,-277.67 530.8,-268.24 605.62,-246.25 620.02,-242.02 635.27,-237.42 650.06,-232.9"/>
<text xml:space="preserve" text-anchor="middle" x="512.71" y="-284" font-family="Times New Roman,serif" font-size="10.00">&lt;&lt;performs&gt;&gt;</text>
</g>
</g>
</svg>
